<svg width="48" height="48" viewBox="0 0 48 48" fill="none" xmlns="http://www.w3.org/2000/svg">
<path d="M34.5 16.7944V15.75C34.5 11.0475 27.4069 7.5 18 7.5C8.59313 7.5 1.5 11.0475 1.5 15.75V23.25C1.5 27.1669 6.42188 30.2794 13.5 31.2113V32.25C13.5 36.9525 20.5931 40.5 30 40.5C39.4069 40.5 46.5 36.9525 46.5 32.25V24.75C46.5 20.8687 41.7337 17.7525 34.5 16.7944ZM10.5 27.5381C6.82687 26.5125 4.5 24.8231 4.5 23.25V20.6119C6.03 21.6956 8.07938 22.5694 10.5 23.1562V27.5381ZM25.5 23.1562C27.9206 22.5694 29.97 21.6956 31.5 20.6119V23.25C31.5 24.8231 29.1731 26.5125 25.5 27.5381V23.1562ZM22.5 36.5381C18.8269 35.5125 16.5 33.8231 16.5 32.25V31.4681C16.9931 31.4869 17.4919 31.5 18 31.5C18.7275 31.5 19.4381 31.4756 20.1356 31.4344C20.9105 31.7118 21.6998 31.9471 22.5 32.1394V36.5381ZM22.5 28.1719C21.0101 28.392 19.506 28.5016 18 28.5C16.494 28.5016 14.9899 28.392 13.5 28.1719V23.7113C14.9921 23.9057 16.4953 24.0021 18 24C19.5047 24.0021 21.0079 23.9057 22.5 23.7113V28.1719ZM34.5 37.1719C31.5159 37.6094 28.4841 37.6094 25.5 37.1719V32.7C26.9916 32.9005 28.495 33.0007 30 33C31.5047 33.0021 33.0079 32.9057 34.5 32.7113V37.1719ZM43.5 32.25C43.5 33.8231 41.1731 35.5125 37.5 36.5381V32.1562C39.9206 31.5694 41.97 30.6956 43.5 29.6119V32.25Z" fill="#AD6B00"/>
</svg>
