<svg width="36" height="38" viewBox="0 0 36 38" fill="none" xmlns="http://www.w3.org/2000/svg">
<path d="M33 0.5H3C2.20435 0.5 1.44129 0.81607 0.87868 1.37868C0.31607 1.94129 0 2.70435 0 3.5V14.5194C0 31.3212 14.2162 36.8956 17.0625 37.8425C17.6704 38.0492 18.3296 38.0492 18.9375 37.8425C21.7875 36.8956 36 31.3212 36 14.5194V3.5C36 2.70435 35.6839 1.94129 35.1213 1.37868C34.5587 0.81607 33.7957 0.5 33 0.5ZM26.5613 13.5612L16.0613 24.0612C15.9219 24.2007 15.7565 24.3114 15.5744 24.3868C15.3923 24.4623 15.1971 24.5012 15 24.5012C14.8029 24.5012 14.6077 24.4623 14.4256 24.3868C14.2435 24.3114 14.0781 24.2007 13.9387 24.0612L9.43875 19.5612C9.15729 19.2798 8.99917 18.898 8.99917 18.5C8.99917 18.102 9.15729 17.7202 9.43875 17.4387C9.72021 17.1573 10.102 16.9992 10.5 16.9992C10.898 16.9992 11.2798 17.1573 11.5613 17.4387L15 20.8775L24.4387 11.4387C24.5781 11.2994 24.7436 11.1888 24.9257 11.1134C25.1077 11.038 25.3029 10.9992 25.5 10.9992C25.6971 10.9992 25.8923 11.038 26.0743 11.1134C26.2564 11.1888 26.4219 11.2994 26.5613 11.4387C26.7006 11.5781 26.8112 11.7436 26.8866 11.9257C26.962 12.1077 27.0008 12.3029 27.0008 12.5C27.0008 12.6971 26.962 12.8923 26.8866 13.0743C26.8112 13.2564 26.7006 13.4219 26.5613 13.5612Z" fill="#2D38A8"/>
</svg>
