<svg width="117" height="80" viewBox="0 0 117 80" fill="none" xmlns="http://www.w3.org/2000/svg">
<rect x="0.236389" width="116.667" height="80" rx="10" fill="#FEB4C7"/>
<path fill-rule="evenodd" clip-rule="evenodd" d="M18.3169 51.2654H13.5697V30H18.3169V51.2654ZM30.1687 30H25.5245C25.5245 33.9134 23.7744 37.5052 20.723 39.8552L18.883 41.2718L26.0124 51.2663H31.874L25.3141 42.0698C28.4236 38.8865 30.1687 34.6038 30.1687 30ZM37.7406 51.2596H33.2574V30.0041H37.7406V51.2596ZM51.2858 36.5563V37.4968C50.0761 36.6484 48.616 36.1499 47.0412 36.1499C42.8734 36.1499 39.4947 39.6234 39.4947 43.9082C39.4947 48.1931 42.8734 51.6666 47.0412 51.6666C48.616 51.6666 50.0761 51.168 51.2858 50.3199V51.2596H55.5679V36.5563H51.2858ZM51.2728 43.9083C51.2728 45.9976 49.5356 47.6914 47.3927 47.6914C45.25 47.6914 43.5128 45.9976 43.5128 43.9083C43.5128 41.8191 45.25 40.1257 47.3927 40.1257C49.5356 40.1257 51.2728 41.8191 51.2728 43.9083ZM96.4601 37.4968V36.5563H100.742V51.2596H96.4601V50.3199C95.2504 51.168 93.7903 51.6666 92.2153 51.6666C88.0475 51.6666 84.6688 48.1931 84.6688 43.9082C84.6688 39.6234 88.0475 36.1499 92.2153 36.1499C93.7903 36.1499 95.2504 36.6484 96.4601 37.4968ZM92.5668 47.6914C94.7097 47.6914 96.4467 45.9976 96.4467 43.9083C96.4467 41.8191 94.7097 40.1257 92.5668 40.1257C90.4239 40.1257 88.6869 41.8191 88.6869 43.9083C88.6869 45.9976 90.4239 47.6914 92.5668 47.6914ZM77.0597 36.1608C75.3492 36.1608 73.7304 36.7068 72.6481 38.213V36.5572H68.3846V51.2596H72.7005V43.533C72.7005 41.2971 74.1589 40.2022 75.9148 40.2022C77.7967 40.2022 78.8786 41.358 78.8786 43.5025V51.2596H83.1555V41.9095C83.1555 38.4878 80.5093 36.1608 77.0597 36.1608ZM62.1919 36.5566V38.4715C63.0502 37.3229 64.6496 36.5574 66.3885 36.5574V40.8358L66.3773 40.8355L66.3647 40.8349C66.3557 40.8344 66.3468 40.8339 66.3376 40.8339C64.6434 40.8339 62.2017 42.0788 62.2017 44.3949V51.2596H57.8078V36.5566H62.1919ZM102.6 48.8072C102.6 47.2813 103.803 46.0446 105.287 46.0446C106.771 46.0446 107.975 47.2813 107.975 48.8072C107.975 50.3326 106.771 51.5696 105.287 51.5696C103.803 51.5696 102.6 50.3326 102.6 48.8072Z" fill="#17120F"/>
</svg>
