<svg width="118" height="80" viewBox="0 0 118 80" fill="none" xmlns="http://www.w3.org/2000/svg">
<path fill-rule="evenodd" clip-rule="evenodd" d="M63.5879 27.1398L57.6614 28.4117V23.6068L63.5879 22.3585V27.1398ZM39.5043 25.0906L33.7432 26.3154L33.7196 45.1817C33.7196 48.6676 36.3404 51.235 39.8349 51.235C41.771 51.235 43.1877 50.8817 43.9668 50.4577V45.6764C43.2113 45.9826 39.4807 47.066 39.4807 43.5801V35.2186H43.9668V30.2017H39.4807L39.5043 25.0906ZM102.57 40.5888C102.57 34.5591 99.642 29.8013 94.0462 29.8013C88.4267 29.8013 85.0267 34.5591 85.0267 40.5417C85.0267 47.6313 89.0406 51.2114 94.8018 51.2114C97.6115 51.2114 99.7365 50.5755 101.342 49.6805V44.9698C99.7365 45.7706 97.8948 46.2652 95.5573 46.2652C93.267 46.2652 91.2365 45.4644 90.9767 42.6851H102.523C102.523 42.5553 102.531 42.2603 102.541 41.9206L102.541 41.9198L102.541 41.9188L102.541 41.9177C102.554 41.4567 102.57 40.9138 102.57 40.5888ZM90.9058 38.3513C90.9058 35.6897 92.5349 34.5827 94.0224 34.5827C95.4627 34.5827 96.9974 35.6897 96.9974 38.3513H90.9058ZM25.5504 34.9125C24.299 34.9125 23.5434 35.2658 23.5434 36.1844C23.5434 37.1873 24.8437 37.6285 26.4569 38.1759C29.0868 39.0682 32.5483 40.2426 32.5629 44.593C32.5629 48.809 29.1865 51.235 24.2754 51.235C22.2448 51.235 20.0253 50.8346 17.8295 49.8925V44.2868C19.8128 45.3702 22.3156 46.1711 24.2754 46.1711C25.5976 46.1711 26.542 45.8177 26.542 44.7343C26.542 43.6233 25.1324 43.1155 23.4307 42.5025C20.839 41.5689 17.5698 40.3911 17.5698 36.467C17.5698 32.2981 20.7573 29.8014 25.5504 29.8014C27.5101 29.8014 29.4462 30.1076 31.4059 30.8849V36.4199C29.6115 35.4542 27.3448 34.9125 25.5504 34.9125ZM51.3102 31.9447L50.9324 30.2018H45.8324V50.811H51.7352V36.8438C53.1283 35.0302 55.4894 35.36 56.2213 35.6191V30.2018C55.4658 29.9191 52.7033 29.4009 51.3102 31.9447ZM57.6611 30.2018H63.5876V50.811H57.6611V30.2018ZM71.2848 31.6385C72.1112 30.8848 73.5987 29.8013 75.9126 29.8013C80.0445 29.8013 83.9404 33.5228 83.964 40.3533C83.964 47.8198 80.1154 51.2115 75.889 51.2115C73.8112 51.2115 72.5598 50.34 71.7098 49.7276L71.6862 56.3932L65.7834 57.6416V30.1782H70.9778L71.2848 31.6385ZM71.7097 44.9227C72.2763 45.535 73.1027 46.0297 74.4958 46.0297C76.668 46.0297 78.1319 43.6743 78.1319 40.5182C78.1319 37.4327 76.6444 35.0302 74.4958 35.0302C73.15 35.0302 72.2999 35.5013 71.6861 36.1843L71.7097 44.9227Z" fill="#6461FC"/>
</svg>
