<svg width="118" height="80" viewBox="0 0 118 80" fill="none" xmlns="http://www.w3.org/2000/svg">
<path fill-rule="evenodd" clip-rule="evenodd" d="M59.9303 57.1898C55.9584 60.6174 50.8062 62.6866 45.1762 62.6866C32.614 62.6866 22.4303 52.3847 22.4303 39.6766C22.4303 26.9686 32.614 16.6667 45.1762 16.6667C50.8062 16.6667 55.9584 18.7358 59.9303 22.1634C63.9022 18.7358 69.0545 16.6667 74.6844 16.6667C87.2466 16.6667 97.4303 26.9686 97.4303 39.6766C97.4303 52.3847 87.2466 62.6866 74.6844 62.6866C69.0545 62.6866 63.9022 60.6174 59.9303 57.1898Z" fill="#ED0006"/>
<path fill-rule="evenodd" clip-rule="evenodd" d="M59.9303 57.1898C64.821 52.9694 67.9221 46.6893 67.9221 39.6766C67.9221 32.6639 64.821 26.3839 59.9303 22.1634C63.9022 18.7358 69.0545 16.6667 74.6844 16.6667C87.2466 16.6667 97.4303 26.9686 97.4303 39.6766C97.4303 52.3847 87.2466 62.6866 74.6844 62.6866C69.0545 62.6866 63.9022 60.6174 59.9303 57.1898Z" fill="#F9A000"/>
<path fill-rule="evenodd" clip-rule="evenodd" d="M59.9304 57.1897C64.821 52.9693 67.9221 46.6893 67.9221 39.6766C67.9221 32.664 64.821 26.384 59.9304 22.1635C55.0398 26.384 51.9387 32.664 51.9387 39.6766C51.9387 46.6893 55.0398 52.9693 59.9304 57.1897Z" fill="#FF5E00"/>
</svg>
