<svg width="117" height="80" viewBox="0 0 117 80" fill="none" xmlns="http://www.w3.org/2000/svg">
<path fill-rule="evenodd" clip-rule="evenodd" d="M13.5 48.2007C13.561 47.8727 13.6169 47.5551 13.6717 47.2437C13.7564 46.7624 13.8385 46.2961 13.9328 45.8297C14.3323 43.7203 14.7346 41.6138 15.1369 39.5072C15.5392 37.4006 15.9415 35.2939 16.341 33.1845C16.3965 32.9174 16.4742 32.7393 16.7405 32.6948C18.8158 32.3831 20.9021 32.1605 22.9774 32.6836C24.7863 33.1289 26.0515 34.409 26.2623 35.9117C26.6951 38.906 24.9528 41.2993 22.367 42.1564C21.002 42.6016 19.6148 42.713 18.2054 42.5794C17.8725 42.546 17.7726 42.635 17.7171 42.9578C17.4175 44.5941 17.1067 46.2193 16.7849 47.8445C16.7627 47.9781 16.6406 48.1896 16.563 48.1896C15.8087 48.2062 15.0669 48.2042 14.2959 48.2021C14.0345 48.2014 13.7697 48.2007 13.5 48.2007ZM18.9038 39.9414H18.9038H18.9038H18.9038C19.3379 39.9532 19.7478 39.9644 20.1475 39.919C21.3016 39.7965 22.2227 39.2734 22.7443 38.1714C23.3325 36.9247 22.9108 35.6 21.801 35.2104C21.0131 34.9322 20.2029 34.9878 19.3928 35.0991C19.2929 35.1103 19.1598 35.2661 19.1376 35.3663C18.9824 36.1817 18.8273 37.0006 18.6663 37.8503L18.666 37.8517L18.666 37.8518L18.6657 37.8533L18.6649 37.8578C18.5384 38.5252 18.4084 39.2116 18.272 39.9301C18.4889 39.9301 18.699 39.9358 18.9038 39.9414H18.9038H18.9038H18.9038H18.9038ZM33.1761 46.0635C33.0006 46.2466 32.8361 46.4309 32.6753 46.611C32.3281 47.0001 31.9983 47.3696 31.6114 47.6664C30.4461 48.568 29.1144 48.7684 27.7716 48.145C26.4399 47.5328 25.8961 46.3417 25.8406 44.9392C25.7185 41.9894 26.7506 39.5516 29.2254 37.8597C30.7791 36.7911 32.5658 36.4683 34.4191 36.5684C35.0321 36.6046 35.6405 36.7113 36.2503 36.8183C36.5787 36.8759 36.9076 36.9335 37.2379 36.9803C37.6152 37.036 37.6707 37.2475 37.6041 37.5703C37.515 38.0358 37.425 38.5008 37.335 38.9656L37.335 38.9656L37.335 38.9657L37.335 38.9657L37.3349 38.9657L37.3349 38.9657C36.9988 40.7012 36.6635 42.4327 36.3834 44.1711C36.2227 45.1663 36.1586 46.1858 36.0952 47.195C36.0841 47.3711 36.0731 47.5468 36.0615 47.722C36.0393 48.0782 35.9506 48.2229 35.5843 48.2118C34.8963 48.1895 34.2082 48.1895 33.5202 48.2118C33.1651 48.2229 33.043 48.0894 33.0763 47.7443C33.1079 47.3631 33.1283 46.9705 33.1495 46.5626L33.1495 46.5625L33.1495 46.5624L33.1495 46.5623L33.1495 46.5622L33.1495 46.5621L33.1495 46.5617L33.1495 46.5615L33.1497 46.5575C33.1582 46.3954 33.1667 46.2308 33.1761 46.0635ZM33.953 39.1843C32.8766 38.8837 31.9777 39.0952 31.223 39.7297C29.8025 40.9319 29.1589 42.4903 29.2809 44.3492C29.3142 44.9169 29.5362 45.4623 30.1354 45.7072C30.7347 45.9521 31.2785 45.774 31.7446 45.3733C32.022 45.1284 32.2884 44.8501 32.4882 44.5385C33.2709 43.3401 33.4847 41.9883 33.7019 40.6153C33.7773 40.139 33.853 39.6602 33.953 39.1843ZM49.6784 45.4178C50.2888 47.3769 51.9646 48.4678 54.9054 48.4678C56.9252 48.4121 58.9339 47.2656 60.1879 44.9058C60.8538 43.6368 61.0979 42.2788 61.0092 40.854C60.9315 39.4848 60.3877 38.3272 59.2779 37.5034C58.1127 36.6352 56.7809 36.4571 55.3604 36.6129C50.6106 37.1472 48.6686 42.1897 49.6784 45.4178ZM52.8389 43.7831V43.783V43.7828V43.7826C52.8401 43.7259 52.8413 43.6696 52.8413 43.6145C52.8746 42.3344 53.1853 41.1434 53.9511 40.0859C54.2951 39.6184 54.7279 39.2622 55.305 39.1286C56.4813 38.8615 57.4468 39.5405 57.5578 40.8206C57.691 42.3901 57.3137 43.8372 56.326 45.095C55.9487 45.5625 55.4715 45.8853 54.8611 45.941C53.7624 46.0412 52.9301 45.2954 52.8413 44.1266C52.8339 44.0149 52.8364 43.8982 52.8389 43.7831ZM63.6505 36.8467H66.4693C66.4249 37.4478 66.3805 38.0266 66.325 38.6166C66.4278 38.5206 66.5272 38.4257 66.6247 38.3327C66.8323 38.1345 67.0311 37.9448 67.235 37.7706C68.3337 36.8133 69.5877 36.3903 71.0415 36.6241C72.2401 36.8244 73.0724 37.7038 73.2056 38.9394C73.3503 40.2251 73.1098 41.4721 72.8699 42.7165C72.8523 42.8081 72.8346 42.8996 72.8171 42.9912C72.7199 43.4963 72.6237 44.0015 72.5276 44.5063L72.5275 44.5067L72.5274 44.5074L72.5273 44.5082C72.3164 45.6157 72.1059 46.7216 71.8849 47.8222C71.8516 47.9669 71.6852 48.1784 71.5742 48.1895C70.6198 48.2118 69.6654 48.2006 68.711 48.1895C68.679 48.1895 68.647 48.1722 68.5984 48.1458L68.5984 48.1458C68.5795 48.1356 68.5582 48.124 68.5334 48.1116C68.711 47.1877 68.8886 46.2527 69.055 45.3176C69.3103 43.8817 69.5544 42.4569 69.7764 41.021C69.8208 40.7761 69.7986 40.52 69.7653 40.2752C69.6765 39.418 69.0439 39.0284 68.2227 39.2845C67.4237 39.5405 66.9465 40.1638 66.5581 40.854C65.981 41.8669 65.7812 42.9912 65.5815 44.1155C65.5314 44.3941 65.4819 44.6722 65.4325 44.95C65.2627 45.9039 65.0936 46.8541 64.9045 47.8111C64.8712 47.9558 64.7047 48.1784 64.5938 48.1895C63.8155 48.2161 63.0303 48.2145 62.193 48.2127H62.1923H62.1917C61.9787 48.2122 61.7624 48.2118 61.5419 48.2118C62.2744 44.3826 62.9624 40.6314 63.6505 36.8467ZM79.6532 45.8742C78.4768 45.7295 77.6889 44.9058 77.7666 43.7481C78.0119 43.7481 78.256 43.7519 78.4988 43.7556L78.499 43.7556C78.9811 43.763 79.4583 43.7704 79.9306 43.7481C81.0737 43.6814 82.1945 43.4921 83.2377 42.969C84.5694 42.3011 85.1909 41.1991 85.091 39.7631C84.9911 38.3049 84.2032 37.2475 82.7938 36.8245C80.6852 36.19 78.7432 36.6352 77.0896 38.0489C75.0809 39.7631 74.3263 42.0339 74.6148 44.6275C74.8146 46.4642 75.8134 47.7777 77.6334 48.2452C79.5866 48.7461 81.5065 48.479 83.3598 47.722C83.493 47.6664 83.6483 47.4549 83.6372 47.3213C83.6106 46.7781 83.5556 46.235 83.5005 45.6918C83.4868 45.5559 83.473 45.4201 83.4597 45.2843C83.4232 45.2843 83.3961 45.2824 83.3753 45.281C83.3454 45.2789 83.3285 45.2777 83.3154 45.2843C83.1933 45.3288 83.0713 45.3733 82.9603 45.4178C81.8949 45.8297 80.7962 46.0078 79.6532 45.8742ZM81.3732 40.9431C80.6963 41.2993 78.9428 41.5108 78.0883 41.3327C78.2659 39.8522 79.8307 38.6945 81.1513 39.0173C81.5952 39.1287 81.917 39.3624 81.9947 39.8411C82.0724 40.3086 81.8393 40.6982 81.3732 40.9431ZM88.8532 43.7927C88.7534 44.8835 89.5302 45.7184 90.7177 45.8742C91.8274 46.0078 92.8928 45.8408 93.936 45.4624C94.032 45.4263 94.1247 45.3901 94.2265 45.3505L94.227 45.3503C94.3134 45.3167 94.4062 45.2806 94.5131 45.2397C94.5348 45.4755 94.5588 45.7066 94.5825 45.9345C94.6316 46.4058 94.6793 46.8636 94.7017 47.3213C94.7128 47.4549 94.5574 47.6664 94.4354 47.722C92.5488 48.5012 90.6067 48.7684 88.6202 48.2229C86.8335 47.7331 85.9013 46.4308 85.6793 44.6498C85.4019 42.3679 85.9901 40.3086 87.577 38.6166C89.2861 36.8022 91.3835 36.1566 93.8028 36.8245C95.2788 37.2363 96.0667 38.3049 96.1555 39.8077C96.2443 41.277 95.5784 42.379 94.1912 43.0246C92.7929 43.6702 91.3058 43.7704 89.7965 43.8038C89.4969 43.7927 89.1862 43.7927 88.8532 43.7927ZM89.1751 41.4217C89.3769 41.409 89.5752 41.3991 89.7707 41.3892C90.263 41.3645 90.7373 41.3407 91.2059 41.277C91.6498 41.2213 92.0938 41.0877 92.4933 40.8985C92.9261 40.7093 93.1369 40.3085 93.0704 39.8188C93.0038 39.3513 92.693 39.1286 92.2602 39.0173C90.9507 38.6611 89.3193 39.8633 89.1751 41.4217ZM96.7657 45.8742C96.6214 46.6312 96.4882 47.377 96.3439 48.2007C96.5662 48.2007 96.7853 48.2011 97.0018 48.2016C97.8557 48.2034 98.6702 48.2051 99.4846 48.1784C99.5623 48.1784 99.6843 47.9669 99.7065 47.8333C99.8197 47.2774 99.9247 46.7187 100.03 46.1602C100.223 45.1307 100.416 44.1017 100.661 43.0914C101.205 40.8429 102.126 40.0637 104.312 39.7743C104.401 39.7631 104.545 39.663 104.567 39.585C104.707 38.9454 104.831 38.3008 104.961 37.6322C105.027 37.2885 105.095 36.9386 105.167 36.5796C103.058 36.357 101.882 37.5814 100.861 39.0841L100.877 38.8682C100.927 38.2031 100.978 37.5264 101.038 36.8133C100.808 36.8133 100.581 36.8126 100.358 36.8119C99.7006 36.8098 99.071 36.8079 98.4414 36.8245C98.3526 36.8356 98.1862 37.036 98.1751 37.1584C97.9383 40.0193 97.3779 42.8174 96.8179 45.6135L96.7657 45.8742Z" fill="black"/>
<path fill-rule="evenodd" clip-rule="evenodd" d="M67.3834 23.4179C67.271 23.3881 67.1587 23.3584 67.0463 23.3333C66.7023 23.3333 66.3583 23.3333 65.992 23.3445C65.867 23.3696 65.7419 23.3969 65.6158 23.4245C65.4622 23.4581 65.3071 23.492 65.1486 23.5226C63.4507 23.8454 61.8526 24.4353 60.31 25.2145C56.9696 26.9065 53.9733 29.0994 51.2876 31.693C49.5009 33.4072 47.7697 35.1993 46.0939 37.036C43.153 40.2641 40.6339 43.815 38.6252 47.7109C37.5931 49.7257 36.6609 51.785 36.2392 54.0224C36.1615 54.4342 36.2947 54.9129 36.4279 55.3247C36.4833 55.4917 36.7941 55.6142 37.0049 55.6809C37.0604 55.7032 37.2269 55.4249 37.3046 55.2691C37.3322 55.2087 37.3604 55.1468 37.3892 55.0836C37.8712 54.0278 38.5229 52.6001 39.0884 51.6548C40.2869 49.6512 41.2331 48.1005 42.576 46.1971C44.7289 43.136 47.2445 40.1325 49.8857 37.4833C52.3827 34.9787 54.8833 32.7393 58.0239 31.0473C59.4666 30.2793 60.9426 29.5224 62.4519 28.899C65.0598 27.8193 67.7788 27.0846 70.5754 26.6727C70.875 26.6282 71.2745 26.3945 71.3744 26.1496C71.4632 25.9269 71.2523 25.5039 71.0415 25.2925C70.187 24.4131 69.1882 23.7452 67.9452 23.5448C67.7579 23.517 67.5707 23.4674 67.3834 23.4179ZM41.9767 38.6055C42.5094 37.1585 42.7757 35.6557 42.809 34.0974C42.7942 33.9304 42.7819 33.7634 42.7696 33.5964C42.7449 33.2625 42.7202 32.9286 42.6758 32.5946C42.3762 30.0122 41.2664 27.8193 39.5019 25.9381C39.2911 25.7266 39.0025 25.5596 38.714 25.4595C38.4254 25.3481 38.2368 25.5151 38.259 25.849C38.2595 25.8561 38.2601 25.8632 38.2606 25.8702C38.2823 26.1531 38.3047 26.4461 38.3588 26.7284C38.4368 27.1732 38.5143 27.6186 38.5917 28.0642C38.8672 29.6483 39.1433 31.2362 39.4464 32.8173C39.7461 34.409 40.079 35.9897 40.4341 37.5592C40.5562 38.0601 40.7559 38.561 41.0001 39.0285C41.1888 39.3847 41.4551 39.3513 41.6992 39.0285L41.6993 39.0285C41.8102 38.8949 41.9212 38.7614 41.9767 38.6055Z" fill="#FC461E"/>
</svg>
